<svg width="314" height="240" viewBox="0 0 314 240" fill="none" xmlns="http://www.w3.org/2000/svg">
  <defs>
    <linearGradient id="bgAgent" x1="18" y1="20" x2="282" y2="218" gradientUnits="userSpaceOnUse">
      <stop stop-color="#FFF8F4"/>
      <stop offset="1" stop-color="#FEC7B3" stop-opacity="0.45"/>
    </linearGradient>
    <linearGradient id="cardAgent" x1="74" y1="58" x2="254" y2="180" gradientUnits="userSpaceOnUse">
      <stop stop-color="#FFFFFF"/>
      <stop offset="1" stop-color="#FFE9DE"/>
    </linearGradient>
    <linearGradient id="lineAgent" x1="0" y1="0" x2="1" y2="1">
      <stop stop-color="#F3A17F"/>
      <stop offset="1" stop-color="#E9815A"/>
    </linearGradient>
  </defs>

  <rect x="10" y="12" width="294" height="216" rx="18" fill="url(#bgAgent)"/>

  <rect x="38" y="36" width="182" height="52" rx="14" fill="white" fill-opacity="0.85"/>
  <circle cx="56" cy="62" r="10" fill="#FEC7B3"/>
  <rect x="74" y="51" width="104" height="9" rx="4.5" fill="#E8EDF2"/>
  <rect x="74" y="65" width="136" height="9" rx="4.5" fill="#EEF2F6"/>

  <rect x="94" y="104" width="182" height="88" rx="16" fill="url(#cardAgent)" stroke="#F5C8B5"/>
  <circle cx="116" cy="129" r="12" fill="#F39A76"/>
  <path d="M109 129h14M116 122v14" stroke="white" stroke-width="2" stroke-linecap="round"/>
  <rect x="134" y="120" width="122" height="10" rx="5" fill="#E8D8CF"/>
  <rect x="134" y="137" width="92" height="10" rx="5" fill="#EFE4DE"/>
  <rect x="109" y="156" width="150" height="8" rx="4" fill="#F2E8E3"/>
  <rect x="109" y="170" width="112" height="8" rx="4" fill="#F6EEEA"/>

  <circle cx="242" cy="62" r="19" fill="white"/>
  <path d="M233 69c1.3-4.9 4.2-8.4 9.2-8.4s7.9 3.5 9.2 8.4" stroke="url(#lineAgent)" stroke-width="2.4" stroke-linecap="round"/>
  <circle cx="242" cy="54" r="4.8" fill="url(#lineAgent)"/>

  <path d="M56 174C86 196 138 208 206 204" stroke="#E98A66" stroke-width="3" stroke-linecap="round" stroke-dasharray="2 9"/>
  <circle cx="56" cy="174" r="5" fill="#E98A66"/>
  <circle cx="206" cy="204" r="5" fill="#E98A66"/>
</svg>
