<svg width="200" height="120" viewBox="0 0 200 120" fill="none" xmlns="http://www.w3.org/2000/svg">
  <defs>
    <linearGradient id="dbg" x1="0" y1="0" x2="200" y2="120" gradientUnits="userSpaceOnUse">
      <stop stop-color="#FFF8F5"/>
      <stop offset="1" stop-color="#FFEFE8"/>
    </linearGradient>
  </defs>
  <rect x="0.5" y="0.5" width="199" height="119" rx="10" fill="url(#dbg)" stroke="#F1D0C3"/>
  <ellipse cx="100" cy="30" rx="42" ry="12" fill="#FFF" stroke="#EFC9B9"/>
  <path d="M58 30V68C58 74.6274 76.804 80 100 80C123.196 80 142 74.6274 142 68V30" fill="#FFF"/>
  <path d="M58 30V68C58 74.6274 76.804 80 100 80C123.196 80 142 74.6274 142 68V30" stroke="#EFC9B9"/>
  <path d="M58 46C58 52.6274 76.804 58 100 58C123.196 58 142 52.6274 142 46" stroke="#EFC9B9"/>
  <path d="M58 58C58 64.6274 76.804 70 100 70C123.196 70 142 64.6274 142 58" stroke="#EFC9B9"/>
  <rect x="18" y="90" width="164" height="16" rx="8" fill="#FFF" stroke="#EFC9B9"/>
  <text x="64" y="101" fill="#8F4F38" font-size="10" font-family="Arial, sans-serif">结构化数据管理</text>
  <circle cx="69" cy="30" r="2" fill="#F1A88A"/>
  <circle cx="100" cy="30" r="2" fill="#F1A88A"/>
  <circle cx="131" cy="30" r="2" fill="#F1A88A"/>
</svg>
