<svg width="320" height="160" viewBox="0 0 320 160" fill="none" xmlns="http://www.w3.org/2000/svg">
  <defs>
    <linearGradient id="bg2" x1="0" y1="0" x2="320" y2="160" gradientUnits="userSpaceOnUse">
      <stop stop-color="#FFF9F6"/>
      <stop offset="1" stop-color="#FFF0EA"/>
    </linearGradient>
  </defs>
  <rect x="0.5" y="0.5" width="319" height="159" rx="12" fill="url(#bg2)" stroke="#F6D9CD"/>
  <circle cx="160" cy="80" r="24" fill="#FFF" stroke="#F2C9B8" stroke-width="2"/>
  <rect x="149" y="69" width="22" height="22" rx="6" fill="#FCD0BF"/>
  <path d="M154 74H166V86H154V74Z" fill="#FFF4EF"/>
  <rect x="64" y="54" width="64" height="24" rx="12" fill="#FFF" stroke="#F2C9B8"/>
  <rect x="192" y="48" width="64" height="24" rx="12" fill="#FFF" stroke="#F2C9B8"/>
  <rect x="78" y="100" width="64" height="24" rx="12" fill="#FFF" stroke="#F2C9B8"/>
  <rect x="206" y="100" width="64" height="24" rx="12" fill="#FFF" stroke="#F2C9B8"/>
  <path d="M128 66L136 70" stroke="#F3A88D" stroke-width="2.5" stroke-linecap="round"/>
  <path d="M192 64L184 70" stroke="#F3A88D" stroke-width="2.5" stroke-linecap="round"/>
  <path d="M142 98L132 108" stroke="#F3A88D" stroke-width="2.5" stroke-linecap="round"/>
  <path d="M178 98L188 108" stroke="#F3A88D" stroke-width="2.5" stroke-linecap="round"/>
  <text x="80" y="69" fill="#8E4F38" font-size="11" font-family="Arial, sans-serif">知识库</text>
  <text x="209" y="63" fill="#8E4F38" font-size="11" font-family="Arial, sans-serif">数据源</text>
  <text x="95" y="115" fill="#8E4F38" font-size="11" font-family="Arial, sans-serif">提示词</text>
  <text x="224" y="115" fill="#8E4F38" font-size="11" font-family="Arial, sans-serif">工具链</text>
  <rect x="110" y="16" width="100" height="20" rx="10" fill="#FFF" stroke="#F2C9B8"/>
  <text x="122" y="30" fill="#B7684A" font-size="11" font-family="Arial, sans-serif">统一知识编排</text>
</svg>
