<svg width="320" height="160" viewBox="0 0 320 160" fill="none" xmlns="http://www.w3.org/2000/svg">
  <defs>
    <linearGradient id="bg" x1="0" y1="0" x2="320" y2="160" gradientUnits="userSpaceOnUse">
      <stop stop-color="#FFF8F5"/>
      <stop offset="1" stop-color="#FFEDE6"/>
    </linearGradient>
    <linearGradient id="node" x1="0" y1="0" x2="0" y2="1">
      <stop stop-color="#FFFFFF"/>
      <stop offset="1" stop-color="#FFF4EF"/>
    </linearGradient>
  </defs>
  <rect x="0.5" y="0.5" width="319" height="159" rx="12" fill="url(#bg)" stroke="#F6D9CD"/>
  <rect x="20" y="38" width="86" height="48" rx="10" fill="url(#node)" stroke="#F2C9B8"/>
  <rect x="117" y="22" width="86" height="48" rx="10" fill="url(#node)" stroke="#F2C9B8"/>
  <rect x="214" y="38" width="86" height="48" rx="10" fill="url(#node)" stroke="#F2C9B8"/>
  <circle cx="34" cy="52" r="4" fill="#FDAA8D"/>
  <rect x="44" y="48" width="48" height="8" rx="4" fill="#F6E3DC"/>
  <rect x="30" y="62" width="62" height="6" rx="3" fill="#F9ECE7"/>
  <circle cx="131" cy="36" r="4" fill="#FDAA8D"/>
  <rect x="141" y="32" width="48" height="8" rx="4" fill="#F6E3DC"/>
  <rect x="127" y="46" width="62" height="6" rx="3" fill="#F9ECE7"/>
  <circle cx="228" cy="52" r="4" fill="#FDAA8D"/>
  <rect x="238" y="48" width="48" height="8" rx="4" fill="#F6E3DC"/>
  <rect x="224" y="62" width="62" height="6" rx="3" fill="#F9ECE7"/>
  <path d="M106 62C112 62 112 46 117 46" stroke="#F3A88D" stroke-width="3" stroke-linecap="round"/>
  <path d="M203 46C209 46 209 62 214 62" stroke="#F3A88D" stroke-width="3" stroke-linecap="round"/>
  <rect x="108" y="104" width="104" height="26" rx="13" fill="#FFF" stroke="#F2C9B8"/>
  <circle cx="121" cy="117" r="5" fill="#69C08D"/>
  <path d="M118.5 117L120.5 119L124 115.5" stroke="white" stroke-width="1.6" stroke-linecap="round" stroke-linejoin="round"/>
  <text x="132" y="121" fill="#8E4F38" font-size="11" font-family="Arial, sans-serif">Agent 自动编排</text>
</svg>
